<?xml version="1.0" encoding="UTF-8" standalone="no"?>
<svg xmlns:xlink="http://www.w3.org/1999/xlink" height="106.1px" width="215.0px" xmlns="http://www.w3.org/2000/svg">
  <g transform="matrix(1.0, 0.0, 0.0, 1.0, 0.0, 0.0)">
    <path d="M152.9 88.35 L149.8 90.95 Q146.25 93.65 143.8 94.0 139.4 94.7 135.5 93.05 132.5 91.3 132.3 91.4 132.0 91.6 131.8 92.3 131.6 93.0 131.75 93.3 132.45 94.25 135.1 95.25 139.25 96.75 144.3 95.85 147.65 95.3 150.6 91.75 L152.9 88.35 M37.0 40.85 L38.35 41.15 40.8 37.6 Q43.6 33.95 46.4 33.2 L54.2 33.0 58.35 33.75 Q56.45 32.85 53.95 32.15 48.95 30.65 45.95 31.4 42.2 32.35 38.7 36.2 35.8 39.4 35.95 40.2 L37.0 40.85 M131.75 19.1 Q130.95 11.4 125.05 7.05 123.25 5.7 121.1 4.85 L119.35 4.25 121.35 5.75 124.95 9.0 Q126.95 11.15 127.7 12.55 128.85 14.75 129.6 19.05 130.3 23.0 130.0 27.1 L129.55 30.45 Q130.3 29.35 130.95 27.35 132.2 23.4 131.75 19.1 M133.6 18.1 L135.7 15.4 Q139.05 12.6 145.1 11.95 151.9 11.1 158.3 16.35 161.5 18.95 163.3 21.75 161.0 20.9 157.8 21.05 151.45 21.4 147.25 26.35 144.8 29.25 145.55 34.95 145.95 37.8 146.8 40.05 146.2 34.65 147.95 30.85 L149.85 28.15 Q148.6 32.7 150.4 37.15 151.3 39.4 152.45 40.75 150.4 33.4 152.65 29.35 153.35 28.05 154.4 27.3 L155.3 26.75 Q153.05 31.1 154.65 35.45 155.4 37.6 156.65 38.9 155.75 35.45 155.8 33.5 155.9 31.45 157.1 29.15 158.55 26.4 161.95 25.95 165.9 25.35 168.9 29.0 171.65 32.35 172.3 38.9 172.65 42.15 172.4 44.75 L175.3 40.0 Q179.7 34.5 187.05 30.65 193.45 27.45 200.15 29.65 203.5 30.75 205.55 32.5 196.95 29.0 190.1 33.6 189.0 34.4 187.8 36.0 186.65 37.6 186.45 38.6 L186.6 38.5 Q191.2 35.0 194.05 34.15 198.8 32.8 206.25 34.8 212.45 36.45 214.3 42.65 215.25 45.75 214.95 48.5 214.0 42.75 209.8 40.05 L205.8 38.5 Q210.35 41.2 211.55 45.6 212.15 47.8 211.85 49.45 211.25 44.6 205.45 42.1 L199.75 40.6 Q205.8 42.5 207.8 46.5 208.8 48.5 208.6 50.15 208.0 46.8 203.95 45.25 200.5 43.95 196.5 44.5 193.6 44.95 190.7 47.25 L188.35 49.5 190.45 50.35 Q192.75 51.75 194.05 54.55 195.15 56.85 195.0 62.5 L194.6 67.7 Q194.05 64.6 192.25 61.4 188.6 55.0 182.15 54.65 176.4 54.35 173.1 60.15 172.05 62.0 171.35 64.2 L170.9 66.05 Q172.05 62.85 174.95 60.25 178.05 57.35 181.25 57.15 185.3 56.85 188.15 60.85 189.55 62.85 190.15 64.9 185.2 59.9 179.95 60.7 174.9 61.5 174.8 66.55 174.75 69.8 179.3 71.45 L183.1 72.35 Q181.05 71.95 178.85 69.75 175.9 66.8 177.9 64.45 178.9 63.3 181.25 63.3 183.5 63.3 185.8 64.4 191.65 67.2 190.25 72.4 188.55 78.9 179.1 76.35 L171.15 73.85 Q166.55 72.45 164.2 72.6 159.6 72.9 157.2 76.35 L155.75 79.7 158.1 77.3 Q161.35 74.9 165.85 75.1 173.35 75.45 175.75 81.8 176.95 84.95 176.65 88.05 175.55 84.25 172.35 81.65 L169.35 79.8 Q172.65 82.5 173.4 87.0 173.8 89.25 173.5 90.95 172.05 85.55 168.5 84.2 L166.2 83.85 165.25 83.95 Q169.15 85.15 169.95 89.2 170.4 91.2 170.0 92.95 168.95 89.3 165.15 87.95 162.25 86.9 158.65 87.4 156.55 87.8 155.15 89.2 L152.95 92.25 Q149.95 96.6 144.25 97.7 137.75 98.9 133.1 96.6 L129.7 94.0 Q129.5 96.4 127.15 99.05 122.45 104.4 111.75 105.8 101.05 107.2 95.1 102.3 93.25 100.75 92.1 98.75 L91.3 97.1 Q90.45 98.3 88.4 99.15 84.3 100.8 78.15 99.1 72.05 97.35 68.95 93.8 L67.05 90.6 Q72.95 91.55 77.75 89.9 82.85 88.25 86.05 83.95 81.55 87.75 74.55 88.2 L68.4 87.9 74.2 87.25 Q80.55 85.8 83.6 81.65 78.45 84.55 73.45 85.0 L69.5 84.9 73.4 84.25 Q77.8 82.85 80.1 79.2 75.85 81.9 72.25 82.45 67.45 83.25 62.15 80.8 58.5 79.15 57.75 74.3 57.55 73.1 57.7 68.6 57.55 70.9 56.05 73.1 53.7 76.6 49.0 77.0 44.4 77.4 41.45 74.4 L39.45 71.35 41.45 73.35 Q44.2 75.25 47.85 74.75 51.35 74.3 53.7 71.35 54.9 69.85 55.35 68.45 53.9 70.25 51.6 71.55 47.0 74.2 42.85 71.9 40.0 70.3 39.8 67.3 L40.2 64.6 Q40.0 68.55 44.1 70.25 48.3 71.95 51.25 68.5 55.25 63.75 51.8 59.1 48.7 54.8 43.65 54.8 40.15 54.8 38.2 58.6 L34.6 65.45 Q31.9 68.75 27.8 68.85 L24.25 68.3 Q30.2 68.0 32.6 64.3 33.85 62.5 33.85 60.7 33.35 61.9 31.95 63.2 29.2 65.75 24.65 66.3 20.1 66.85 16.5 65.7 L13.8 64.5 19.4 64.85 Q22.85 64.7 24.5 63.95 27.9 62.4 29.85 58.95 30.8 57.25 31.1 55.8 26.9 62.15 20.45 61.85 18.45 61.75 16.5 61.0 L14.9 60.3 18.05 60.35 Q21.55 60.2 23.6 59.1 25.65 58.0 28.25 54.2 L30.5 50.6 29.5 49.75 Q28.1 48.85 26.25 48.85 24.5 48.85 23.25 50.1 22.7 50.7 21.1 53.2 19.0 56.6 14.45 57.8 L10.35 58.3 Q15.15 56.0 16.65 54.25 18.5 52.15 18.85 47.9 L15.6 52.3 Q13.85 54.35 11.75 55.05 6.2 57.0 1.6 54.35 7.95 54.65 10.6 52.5 11.65 51.6 13.25 48.0 8.45 52.9 3.75 51.0 2.3 50.4 1.0 49.2 L0.0 48.1 2.45 49.1 7.45 48.9 Q8.6 48.35 10.6 45.5 12.55 42.6 17.05 40.55 21.95 38.25 28.55 38.75 31.85 39.0 34.15 39.7 L35.55 36.95 Q37.8 33.65 42.0 31.0 46.2 28.4 52.75 29.6 56.5 30.3 64.15 32.4 L75.25 32.7 Q80.8 31.7 83.2 28.35 85.35 25.4 84.9 21.85 L84.05 18.95 Q84.5 23.4 81.9 26.25 L79.25 28.2 Q82.7 22.85 81.55 19.3 81.2 18.15 80.4 17.35 L79.7 16.8 Q81.1 20.6 79.5 23.55 78.75 25.0 77.65 25.7 79.1 20.85 77.3 18.05 L75.85 16.8 Q77.1 18.25 76.35 21.65 75.45 25.65 73.25 26.7 69.6 28.4 66.2 27.6 L63.55 26.5 Q63.35 23.65 64.55 20.05 67.0 12.85 74.2 9.15 81.4 5.45 87.35 5.8 90.3 6.0 91.85 6.9 L93.35 5.3 Q95.4 3.4 98.0 2.15 106.3 -1.9 117.35 1.6 128.4 5.1 132.1 11.95 133.95 15.4 133.6 18.1" fill="#373535" fill-rule="evenodd" stroke="none"/>
  </g>
</svg>
