<?xml version="1.0" encoding="UTF-8" standalone="no"?>
<svg xmlns:xlink="http://www.w3.org/1999/xlink" height="80.55px" width="62.15px" xmlns="http://www.w3.org/2000/svg">
  <g transform="matrix(1.0, 0.0, 0.0, 1.0, 0.0, 0.0)">
    <path d="M9.75 65.0 Q8.05 64.95 7.7 64.3 7.5 63.85 12.5 63.15 L22.85 61.75 42.55 58.9 Q43.0 59.05 42.85 59.95 L42.15 61.6 Q40.75 65.45 38.05 69.2 32.65 76.7 26.3 76.3 L28.65 75.25 Q31.25 73.85 32.6 72.05 34.8 69.25 36.85 64.55 33.25 67.1 31.25 66.9 L26.05 65.6 20.6 64.15 13.6 64.5 9.75 65.0 M6.1 60.7 L7.55 60.75 Q10.45 60.75 10.45 61.9 10.45 62.55 9.8 62.5 L8.25 62.3 6.5 62.15 Q5.7 61.95 5.65 61.35 5.6 60.75 6.1 60.7 M8.3 60.0 L5.85 59.35 3.65 59.0 Q2.85 58.75 2.8 58.15 2.75 57.5 3.7 57.5 L5.6 57.6 Q8.0 57.6 9.55 58.55 10.6 59.15 10.5 59.75 L9.8 60.3 8.3 60.0 M8.9 57.1 L7.45 57.0 6.25 56.25 4.85 55.85 3.8 55.8 1.1 56.15 Q0.2 56.25 0.05 55.8 -0.15 55.35 0.3 55.2 L1.25 54.7 2.2 54.3 5.4 54.5 7.35 55.0 9.0 55.75 9.5 56.5 8.9 57.1 M7.8 54.05 L6.95 54.1 5.55 53.45 3.6 52.65 2.25 52.15 Q1.9 51.95 1.95 51.45 L4.6 51.35 Q5.35 51.55 6.45 52.25 7.55 53.0 7.85 53.45 8.1 53.9 7.8 54.05 M45.15 32.35 L45.9 30.5 46.9 31.05 49.45 31.95 52.55 32.5 57.75 33.45 Q61.1 34.15 61.9 38.65 62.4 41.6 61.85 48.6 61.25 56.0 54.3 80.55 L54.5 76.7 Q54.5 72.45 53.65 70.55 52.8 68.7 49.55 68.7 L46.45 69.1 49.45 67.75 Q52.9 66.1 55.35 64.3 59.45 61.3 60.8 44.65 61.1 41.35 59.95 39.15 58.6 36.4 55.5 36.8 52.65 37.2 49.3 40.2 L46.55 43.15 Q46.1 42.1 46.4 40.9 L47.0 39.3 47.8 37.25 Q48.2 36.15 47.95 35.45 L47.65 35.0 46.2 36.55 42.95 39.35 Q41.45 40.75 39.8 44.1 L38.4 47.2 Q38.2 45.1 38.45 42.65 39.05 37.75 41.5 36.15 43.9 34.55 45.15 32.35 M24.7 16.9 Q24.75 17.35 24.1 17.6 L22.9 17.7 Q21.3 17.45 21.3 16.85 21.3 16.35 21.9 16.0 22.55 15.55 23.25 15.75 24.55 16.1 24.7 16.9 M31.0 14.7 Q31.3 15.65 29.6 16.55 L27.95 16.95 Q27.2 16.9 27.1 16.5 26.9 15.4 28.3 14.65 29.15 14.15 30.0 14.2 30.85 14.2 31.0 14.7 M24.4 1.4 Q26.65 0.4 29.1 0.05 32.65 -0.45 34.1 2.45 34.4 3.05 34.4 4.8 34.4 6.7 34.7 7.6 35.3 9.45 36.9 12.0 L33.55 8.95 Q32.85 8.35 32.45 7.0 31.95 5.55 31.3 4.75 30.45 3.7 29.05 3.7 L27.8 3.95 29.5 5.35 Q30.15 5.9 30.45 6.7 L31.15 8.8 34.3 15.95 Q37.0 22.25 37.35 25.45 37.75 28.8 35.3 33.3 L30.55 40.4 Q28.65 43.05 27.3 48.05 L26.3 52.55 Q25.1 47.55 26.8 43.2 27.3 41.8 31.45 34.55 33.9 30.25 34.5 25.1 34.9 21.7 34.45 19.55 34.25 18.5 31.55 13.3 L28.4 7.75 Q27.85 7.2 25.95 7.2 23.65 7.25 21.0 8.35 18.55 9.4 17.4 11.55 L16.75 13.5 18.55 11.75 19.25 14.9 19.95 19.25 Q19.95 19.8 18.5 22.15 17.0 24.5 16.9 26.8 16.8 29.25 18.5 31.15 L20.55 33.45 21.55 36.0 22.5 38.75 Q23.1 40.8 21.0 47.25 19.8 50.85 18.6 57.2 18.15 53.15 18.75 49.95 19.8 44.45 19.8 41.95 L19.75 41.1 Q19.05 39.85 17.95 38.85 16.3 37.5 14.65 37.25 L12.0 37.55 Q10.9 38.0 8.75 39.65 7.05 41.0 6.3 46.1 5.9 48.65 5.85 50.9 5.1 50.75 4.25 50.2 2.6 49.1 2.25 47.25 2.1 46.4 2.55 44.2 L3.9 38.0 Q4.75 34.4 5.95 33.15 6.75 32.4 8.0 32.4 L12.45 33.25 Q15.65 33.65 17.6 33.15 14.6 28.65 14.2 27.4 13.7 25.85 14.9 23.2 16.05 20.8 17.25 20.15 18.2 19.6 18.1 18.3 17.95 17.1 17.1 16.2 L15.4 14.75 Q14.6 13.95 14.95 13.2 15.75 11.6 17.3 8.95 19.4 5.35 20.55 3.95 21.8 2.5 24.4 1.4" fill="#ffffff" fill-rule="evenodd" stroke="none"/>
  </g>
</svg>
