<?xml version="1.0" encoding="UTF-8" standalone="no"?>
<svg xmlns:xlink="http://www.w3.org/1999/xlink" height="188.1px" width="311.9px" xmlns="http://www.w3.org/2000/svg">
  <g transform="matrix(1.0, 0.0, 0.0, 1.0, 0.0, 0.0)">
    <path d="M243.75 29.15 Q254.15 29.3 262.55 38.5 269.9 46.55 265.0 56.1 262.55 60.9 258.65 64.05 256.75 61.95 255.15 60.9 253.55 59.8 251.5 59.4 L249.75 59.25 249.75 63.4 Q249.5 68.4 248.35 72.85 246.7 79.3 241.35 83.15 236.9 86.3 230.35 87.4 230.25 91.05 229.7 93.15 229.0 95.8 227.0 98.25 226.25 99.2 224.7 100.15 221.7 101.95 218.05 101.7 214.5 101.45 211.35 100.1 L208.9 98.8 205.0 102.35 Q199.65 107.7 192.85 108.9 186.05 110.1 179.35 106.8 175.35 111.65 168.45 114.2 162.3 116.5 155.35 116.5 150.05 116.5 145.6 114.85 140.7 113.05 137.4 109.35 134.35 109.75 129.85 109.25 120.9 108.2 113.95 103.55 107.0 98.85 104.0 91.9 103.05 89.7 102.65 87.55 L102.4 85.85 Q96.3 88.85 90.2 86.45 84.0 84.0 81.75 77.6 67.7 84.55 56.05 73.15 51.6 68.8 48.35 62.55 45.55 57.05 44.65 52.25 L43.95 47.35 47.65 48.0 Q51.65 48.35 53.2 46.85 63.1 36.95 79.3 39.25 83.95 32.3 91.25 30.15 97.9 28.2 106.35 30.25 106.8 18.95 117.1 11.5 127.2 4.15 138.35 6.45 141.4 4.0 144.9 2.4 150.1 0.0 155.3 0.0 L155.65 0.0 Q164.35 0.1 171.85 3.6 180.2 7.45 184.25 14.35 197.25 7.65 208.75 16.2 218.1 23.1 223.9 37.3 233.6 28.95 243.75 29.15" fill="#ffffff" fill-rule="evenodd" stroke="none"/>
    <path d="M83.8 45.45 L84.85 46.15 86.2 46.45 88.65 42.85 Q91.4 39.2 94.25 38.45 L102.05 38.25 106.2 39.0 Q104.3 38.1 101.8 37.4 96.8 35.9 93.8 36.65 90.05 37.6 86.55 41.45 83.65 44.65 83.8 45.45 M179.65 97.55 Q179.45 98.3 179.65 98.55 180.15 99.45 183.0 100.5 187.1 102.0 192.15 101.15 195.5 100.55 198.45 97.05 L200.75 93.65 197.65 96.25 Q194.1 98.9 191.65 99.25 187.25 99.95 183.35 98.3 180.35 96.6 180.15 96.7 179.85 96.85 179.65 97.55 M168.95 10.1 L167.2 9.5 169.2 11.0 172.8 14.25 Q174.8 16.4 175.55 17.8 176.7 20.0 177.45 24.35 178.15 28.3 177.85 32.4 L177.4 35.7 178.8 32.6 Q180.05 28.65 179.6 24.35 178.8 16.7 172.9 12.35 171.05 10.95 168.95 10.1 M248.0 34.95 Q251.35 36.05 253.4 37.8 244.8 34.2 237.95 38.85 236.8 39.65 235.65 41.25 234.5 42.85 234.3 43.9 L234.45 43.75 Q239.1 40.25 241.9 39.45 246.65 38.05 254.1 40.05 260.3 41.75 262.15 47.9 263.1 51.0 262.8 53.75 261.85 48.0 257.65 45.35 L253.65 43.8 Q258.2 46.5 259.4 50.85 260.0 53.05 259.7 54.7 259.1 49.85 253.3 47.35 L247.65 45.85 Q253.65 47.75 255.65 51.8 256.65 53.8 256.45 55.45 255.85 52.1 251.8 50.55 248.3 49.2 244.35 49.8 241.45 50.2 238.55 52.5 L236.2 54.75 238.3 55.6 Q240.65 57.0 241.95 59.8 243.0 62.15 242.85 67.8 L242.45 72.95 Q241.9 69.85 240.1 66.65 236.45 60.25 230.0 59.9 224.25 59.6 220.95 65.45 219.25 68.4 218.75 71.35 219.9 68.15 222.8 65.5 225.9 62.65 229.1 62.4 233.15 62.1 236.0 66.1 237.4 68.1 238.0 70.15 233.05 65.15 227.8 66.0 222.75 66.8 222.65 71.85 222.6 75.1 227.15 76.7 L230.95 77.6 Q228.9 77.2 226.7 75.0 223.75 72.1 225.75 69.7 226.75 68.55 229.1 68.55 231.35 68.55 233.65 69.65 239.5 72.45 238.1 77.65 236.4 84.15 226.95 81.65 L219.0 79.1 Q214.4 77.7 212.05 77.85 207.45 78.15 205.05 81.6 203.85 83.35 203.6 85.0 204.35 83.75 205.95 82.55 209.2 80.2 213.7 80.4 221.2 80.75 223.6 87.05 224.8 90.2 224.5 93.3 223.4 89.5 220.2 86.9 L217.2 85.05 Q220.5 87.75 221.25 92.25 221.65 94.55 221.4 96.25 219.9 90.8 216.35 89.45 215.25 89.05 214.05 89.1 L213.1 89.2 Q217.0 90.4 217.8 94.45 218.25 96.5 217.85 98.25 216.8 94.6 213.0 93.25 210.05 92.2 206.5 92.7 204.4 93.05 203.0 94.5 L200.8 97.5 Q197.8 101.9 192.1 102.95 185.6 104.15 180.95 101.85 L177.55 99.3 177.15 100.85 Q176.45 102.7 175.0 104.35 170.3 109.7 159.6 111.05 148.9 112.45 142.95 107.55 141.1 106.05 139.95 104.05 L139.15 102.4 Q138.3 103.6 136.25 104.45 132.15 106.1 126.0 104.35 119.9 102.6 116.8 99.05 L114.9 95.85 Q120.75 96.8 125.6 95.2 130.7 93.5 133.9 89.2 129.4 93.0 122.4 93.45 L116.25 93.15 122.05 92.5 Q128.4 91.05 131.45 86.9 126.3 89.8 121.3 90.25 L117.35 90.15 121.25 89.5 Q125.65 88.1 127.95 84.45 123.7 87.15 120.1 87.7 115.3 88.5 110.0 86.1 106.35 84.45 105.6 79.55 105.4 78.35 105.55 73.85 105.4 76.15 103.9 78.35 101.55 81.85 96.85 82.25 92.25 82.65 89.3 79.65 L87.3 76.6 89.3 78.6 Q92.05 80.5 95.7 80.05 99.2 79.6 101.55 76.6 L103.2 73.75 99.45 76.85 Q94.85 79.45 90.7 77.15 87.85 75.55 87.65 72.55 L88.05 69.85 Q87.85 73.8 91.95 75.5 96.15 77.2 99.1 73.75 103.1 69.05 99.65 64.4 96.55 60.1 91.5 60.1 88.0 60.1 86.05 63.9 L84.45 67.35 Q83.45 69.5 82.45 70.75 79.75 74.05 75.65 74.15 L72.1 73.6 Q78.05 73.25 80.5 69.55 81.25 68.4 81.55 67.05 L81.7 65.95 79.8 68.45 Q77.05 71.0 72.5 71.55 67.95 72.1 64.35 71.0 L61.65 69.8 67.25 70.1 Q70.7 69.95 72.35 69.2 75.75 67.7 77.7 64.25 L78.95 61.05 Q74.75 67.45 68.3 67.15 66.3 67.05 64.35 66.3 L62.75 65.6 65.9 65.65 Q69.4 65.5 71.45 64.35 73.5 63.25 76.1 59.45 L78.35 55.9 77.35 55.0 Q75.95 54.1 74.1 54.1 72.35 54.1 71.1 55.35 L68.95 58.5 Q66.85 61.85 62.3 63.05 L58.2 63.55 Q62.95 61.3 64.5 59.55 66.35 57.45 66.7 53.2 L63.45 57.6 Q61.7 59.6 59.6 60.35 54.0 62.3 49.45 59.6 55.8 59.9 58.45 57.75 59.5 56.85 61.1 53.25 56.3 58.15 51.6 56.25 50.15 55.65 48.85 54.45 L47.85 53.35 50.3 54.35 55.3 54.15 Q56.5 53.6 58.45 50.75 60.45 47.9 64.9 45.8 69.8 43.55 76.4 44.05 79.7 44.25 82.0 44.95 82.3 43.85 83.4 42.2 85.65 38.9 89.85 36.25 94.05 33.65 100.6 34.85 104.35 35.55 112.0 37.65 L123.1 38.0 Q128.7 37.0 131.05 33.65 133.2 30.7 132.75 27.15 L131.9 24.2 Q132.35 28.65 129.75 31.55 128.5 32.95 127.1 33.5 130.55 28.15 129.4 24.6 129.05 23.45 128.25 22.65 L127.55 22.1 Q128.95 25.9 127.35 28.8 126.6 30.25 125.5 30.95 126.95 26.1 125.15 23.3 L123.6 22.0 Q124.95 23.5 124.2 26.95 123.3 30.9 121.1 31.95 117.45 33.65 114.05 32.9 L111.4 31.8 Q111.2 28.95 112.4 25.3 114.85 18.1 122.05 14.4 129.25 10.75 135.2 11.1 138.15 11.25 139.7 12.15 L141.2 10.55 Q143.25 8.65 145.85 7.4 154.15 3.35 165.2 6.85 176.25 10.35 179.95 17.2 181.8 20.65 181.45 23.35 L183.55 20.65 Q186.9 17.85 192.95 17.2 199.75 16.35 206.15 21.6 209.35 24.25 211.15 27.05 208.85 26.2 205.65 26.35 199.3 26.65 195.1 31.65 192.65 34.5 193.4 40.2 193.8 43.05 194.65 45.3 194.05 39.9 195.85 36.15 L197.75 33.45 Q196.5 38.0 198.3 42.45 199.15 44.7 200.3 46.0 198.25 38.7 200.55 34.6 201.25 33.35 202.3 32.55 202.8 32.15 203.2 32.0 200.9 36.35 202.5 40.7 203.25 42.85 204.5 44.15 203.6 40.7 203.65 38.8 203.75 36.75 204.95 34.45 206.45 31.7 209.85 31.25 213.75 30.65 216.75 34.3 219.5 37.6 220.15 44.15 220.5 47.4 220.25 50.0 L223.15 45.3 Q227.55 39.8 234.9 35.9 241.3 32.7 248.0 34.95" fill="#000000" fill-rule="evenodd" stroke="none"/>
    <path d="M134.05 79.8 Q132.35 79.7 132.0 79.05 131.8 78.65 136.8 77.95 L147.15 76.5 166.85 73.7 Q167.3 73.85 167.15 74.75 L165.45 78.8 Q164.05 81.65 162.35 83.95 156.95 91.45 150.6 91.05 L152.95 90.0 Q155.55 88.65 156.9 86.85 L159.85 82.0 161.15 79.3 Q157.55 81.9 155.55 81.65 L150.35 80.35 144.9 78.9 141.6 78.6 137.9 79.3 134.05 79.8 M130.4 75.5 L131.85 75.55 Q134.75 75.55 134.75 76.7 134.75 77.35 134.1 77.3 L132.55 77.1 130.85 76.95 Q130.05 76.75 130.0 76.1 129.95 75.55 130.4 75.5 M134.1 75.1 L132.6 74.75 Q131.15 74.25 130.2 74.1 L128.0 73.8 Q127.15 73.55 127.1 72.9 127.05 72.3 128.0 72.25 L129.95 72.35 Q132.3 72.35 133.85 73.3 134.9 73.95 134.8 74.55 134.65 75.05 134.1 75.1 M125.55 69.45 L126.5 69.05 129.7 69.3 131.65 69.75 Q133.0 70.2 133.3 70.55 L133.8 71.3 133.2 71.9 Q132.15 72.45 130.55 71.0 130.25 70.7 129.15 70.65 L128.1 70.6 125.4 70.95 Q124.5 71.05 124.35 70.6 124.15 70.15 124.6 69.95 L125.55 69.45 M126.25 66.2 Q126.3 65.75 127.25 65.8 L128.9 66.15 Q129.65 66.35 130.75 67.05 L132.15 68.25 Q132.45 68.65 132.1 68.85 L131.25 68.85 Q129.2 67.85 127.9 67.4 L126.55 66.95 Q126.2 66.7 126.25 66.2 M152.6 29.4 Q153.45 28.95 154.3 29.0 155.15 29.0 155.3 29.45 155.6 30.4 153.9 31.3 L152.25 31.7 Q151.5 31.7 151.4 31.25 151.2 30.2 152.6 29.4 M147.55 30.5 Q148.95 30.9 149.0 31.7 149.05 32.1 148.4 32.35 L147.2 32.45 Q145.6 32.2 145.6 31.65 145.6 31.15 146.2 30.75 146.85 30.35 147.55 30.5 M158.4 17.25 Q158.7 17.85 158.7 19.6 158.7 21.5 159.0 22.4 159.65 24.2 161.2 26.75 L157.85 23.75 Q157.15 23.1 156.75 21.8 156.25 20.3 155.6 19.5 154.75 18.45 153.35 18.5 L152.1 18.75 153.8 20.1 Q154.45 20.65 154.75 21.45 L155.45 23.6 158.6 30.7 Q161.3 37.05 161.65 40.2 162.05 43.55 159.6 48.05 L154.85 55.2 Q152.95 57.85 151.6 62.85 L150.6 67.3 Q149.4 62.35 151.1 57.95 151.65 56.5 155.75 49.3 158.2 45.0 158.8 39.9 159.2 36.45 158.8 34.3 L155.85 28.1 152.7 22.5 Q152.15 21.95 150.25 21.95 147.95 22.0 145.3 23.15 142.85 24.2 141.75 26.3 141.2 27.4 141.1 28.25 L142.9 26.5 143.6 29.65 144.25 34.0 Q144.25 34.6 142.8 36.9 141.35 39.25 141.25 41.6 141.15 44.05 142.85 45.9 L144.85 48.25 145.85 50.75 146.8 53.55 Q147.4 55.55 145.3 62.0 144.1 65.65 142.9 72.0 142.45 67.9 143.05 64.75 144.1 59.15 144.1 56.7 L144.05 55.85 Q143.25 54.45 142.25 53.6 140.7 52.3 138.95 52.0 L136.3 52.3 Q135.15 52.8 133.05 54.45 131.35 55.75 130.6 60.85 130.2 63.4 130.15 65.65 129.4 65.5 128.55 64.95 126.9 63.85 126.55 62.0 126.4 61.2 126.85 58.95 L128.2 52.75 Q129.05 49.2 130.25 47.95 131.05 47.2 132.3 47.2 L136.75 48.0 139.05 48.15 141.9 47.9 140.0 45.05 Q138.85 43.3 138.5 42.2 138.0 40.6 139.2 38.0 140.35 35.6 141.55 34.9 142.5 34.35 142.4 33.05 142.25 31.85 141.4 31.0 L139.7 29.55 Q138.85 28.75 139.25 27.95 L141.6 23.7 Q143.7 20.1 144.85 18.75 146.1 17.25 148.7 16.15 150.9 15.15 153.4 14.8 156.95 14.25 158.4 17.25 M176.85 47.25 L182.05 48.25 Q185.4 48.95 186.2 53.4 186.7 56.35 186.15 63.35 185.8 68.0 182.15 82.1 L178.6 95.3 178.8 91.45 Q178.8 87.25 177.95 85.35 177.1 83.45 173.85 83.5 L170.75 83.9 Q175.75 81.9 179.65 79.05 183.7 76.1 185.1 59.45 185.35 56.15 184.25 53.9 182.9 51.15 179.8 51.55 176.95 51.95 173.65 54.95 172.0 56.45 170.9 57.9 170.4 56.85 170.75 55.65 L171.3 54.05 172.1 52.0 Q172.5 50.9 172.25 50.2 L171.95 49.75 170.5 51.3 167.25 54.1 Q165.75 55.5 164.1 58.85 L162.7 61.95 Q162.5 59.85 162.75 57.4 163.35 52.55 165.8 50.9 168.2 49.35 169.45 47.15 L170.2 45.3 171.2 45.85 173.75 46.7 176.85 47.25" fill="#ffffff" fill-rule="evenodd" stroke="none"/>
    <path d="M57.9 128.25 Q57.2 128.35 56.95 128.85 56.7 129.25 56.6 130.2 L56.55 143.55 Q56.55 149.65 56.7 151.1 56.85 152.6 58.05 152.8 L59.85 152.95 Q60.4 152.95 60.4 153.2 60.4 153.55 59.75 153.55 L50.0 153.55 Q49.3 153.55 49.3 153.2 49.3 152.95 49.85 152.95 L51.1 152.8 Q51.95 152.6 52.1 151.1 52.3 149.65 52.3 143.55 L52.3 137.5 52.2 130.2 Q52.15 128.55 51.05 128.25 L49.8 128.1 Q49.25 128.1 49.25 127.8 49.25 127.5 50.05 127.5 L58.75 127.5 Q59.5 127.5 59.5 127.8 59.5 128.1 58.95 128.1 L57.9 128.25" fill="#ffffff" fill-rule="evenodd" stroke="none"/>
    <path d="M73.45 127.5 Q74.2 127.5 74.2 127.8 74.2 128.1 73.55 128.1 L72.2 128.25 Q71.0 128.45 70.95 130.2 L70.9 143.55 71.0 148.7 Q71.1 150.55 71.6 151.0 72.5 151.75 75.75 151.75 L78.15 151.6 Q79.2 151.4 79.8 150.8 80.6 149.9 80.7 148.7 80.8 148.2 81.1 148.2 L81.35 148.8 81.2 150.55 80.85 152.75 Q80.7 153.35 80.35 153.5 L78.65 153.65 64.3 153.55 Q63.6 153.55 63.6 153.2 63.6 152.95 64.15 152.95 L65.4 152.8 Q66.15 152.65 66.4 150.9 L66.55 143.55 66.5 130.2 66.15 128.85 Q65.85 128.4 65.0 128.25 L63.9 128.1 Q63.3 128.1 63.3 127.8 63.3 127.5 64.05 127.5 L73.45 127.5" fill="#ffffff" fill-rule="evenodd" stroke="none"/>
    <path d="M141.5 130.3 Q139.95 128.6 136.9 128.6 134.6 128.6 133.2 129.6 131.85 130.6 131.85 132.15 131.85 133.35 132.8 134.4 133.75 135.5 136.35 137.1 L137.55 137.85 Q141.35 140.2 142.95 142.2 144.5 144.2 144.5 146.65 144.5 150.5 140.5 152.65 137.85 154.05 133.75 154.05 130.1 154.05 127.55 153.15 L126.9 152.75 Q126.75 152.55 126.75 152.0 L127.0 147.45 Q127.0 146.55 127.5 146.55 127.9 146.55 127.9 147.15 L128.3 148.9 Q129.55 152.4 134.35 152.4 137.0 152.4 138.65 151.1 140.05 150.0 140.05 148.45 140.05 147.05 139.3 145.95 138.35 144.5 135.9 142.95 L133.95 141.7 Q130.5 139.55 129.05 137.55 127.65 135.7 127.65 133.55 127.65 130.7 130.35 128.85 133.05 127.0 137.45 127.0 L143.1 127.6 Q143.7 127.7 143.7 128.0 L143.6 129.25 143.5 132.15 Q143.5 133.2 143.05 133.2 142.65 133.2 142.65 132.55 142.65 131.45 141.5 130.3" fill="#ffffff" fill-rule="evenodd" stroke="none"/>
    <path d="M155.65 127.5 Q156.4 127.5 156.4 127.8 156.4 128.1 155.75 128.1 L154.75 128.25 Q153.55 128.45 153.5 130.2 L153.4 137.5 153.4 138.25 153.6 138.45 166.8 138.45 167.0 138.25 166.95 130.2 166.6 128.85 Q166.3 128.4 165.45 128.25 L164.1 128.1 Q163.5 128.1 163.5 127.8 163.5 127.5 164.25 127.5 L173.55 127.5 Q174.3 127.5 174.3 127.8 174.3 128.1 173.65 128.1 L172.65 128.25 Q171.45 128.45 171.4 130.2 L171.3 137.5 171.3 143.55 Q171.3 149.45 171.5 150.95 171.7 152.65 172.85 152.8 L174.6 152.95 Q175.15 152.95 175.15 153.2 175.15 153.55 174.45 153.55 L164.75 153.55 Q164.05 153.55 164.05 153.2 164.05 152.95 164.6 152.95 L165.85 152.8 Q166.6 152.65 166.85 150.9 L167.0 143.55 167.0 140.55 166.8 140.35 153.6 140.35 153.4 140.55 153.4 143.55 Q153.4 149.45 153.6 150.95 153.8 152.65 154.95 152.8 L156.7 152.95 Q157.25 152.95 157.25 153.2 157.25 153.55 156.55 153.55 L146.85 153.55 Q146.15 153.55 146.15 153.2 146.15 152.95 146.7 152.95 L147.95 152.8 148.65 152.15 148.95 150.9 149.1 143.55 149.05 130.2 148.7 128.85 Q148.4 128.4 147.55 128.25 L146.2 128.1 Q145.65 128.1 145.65 127.8 145.65 127.5 146.35 127.5 L155.65 127.5" fill="#ffffff" fill-rule="evenodd" stroke="none"/>
    <path d="M189.1 134.1 L188.95 133.8 Q188.85 133.8 188.7 134.1 L185.55 142.6 Q185.45 142.85 185.7 142.85 L192.05 142.85 Q192.3 142.85 192.2 142.65 L189.1 134.1 M188.85 128.1 Q189.4 126.75 189.8 126.75 190.15 126.75 190.65 127.85 L199.2 149.05 Q200.65 152.5 202.25 152.8 L203.7 152.95 Q204.15 152.95 204.15 153.2 204.15 153.55 202.55 153.55 L196.05 153.5 195.0 153.2 Q195.0 152.95 195.5 152.9 196.0 152.75 195.8 152.1 L193.05 144.8 192.7 144.55 185.0 144.55 Q184.8 144.55 184.7 144.85 L182.85 149.8 Q182.3 151.15 182.3 151.9 182.3 152.95 183.7 152.95 L184.2 152.95 Q184.7 152.95 184.7 153.2 L184.15 153.55 176.4 153.55 Q175.75 153.55 175.75 153.2 175.75 152.95 176.15 152.95 L177.25 152.9 Q178.35 152.75 179.05 151.9 179.6 151.25 180.15 149.8 L188.85 128.1" fill="#ffffff" fill-rule="evenodd" stroke="none"/>
    <path d="M246.5 128.65 Q242.95 128.65 240.75 130.85 238.0 133.6 238.0 139.45 238.0 145.0 240.85 148.6 243.75 152.35 248.6 152.35 251.45 152.35 253.5 150.5 256.6 147.7 256.6 141.2 256.6 135.5 253.65 132.0 250.85 128.65 246.5 128.65 M257.7 130.5 Q261.45 133.95 261.45 139.9 261.45 145.95 257.6 149.95 253.6 154.05 247.15 154.05 240.3 154.05 236.5 149.6 233.25 145.8 233.25 140.55 233.25 135.35 236.5 131.55 240.4 127.0 247.5 127.0 253.95 127.0 257.7 130.5" fill="#ffffff" fill-rule="evenodd" stroke="none"/>
    <path d="M216.45 152.25 Q221.15 152.25 223.9 149.8 226.6 147.3 226.6 141.2 226.6 135.75 223.5 132.55 220.1 129.1 214.3 129.1 L212.2 129.35 Q211.85 129.55 211.85 130.05 L211.85 148.25 Q212.0 150.55 212.2 150.9 213.15 152.25 216.45 152.25 M227.8 131.45 Q230.95 135.0 230.95 140.2 230.95 146.05 227.4 149.8 226.0 151.4 223.7 152.45 220.6 153.9 216.6 153.9 L212.85 153.65 209.7 153.45 205.6 153.55 Q204.95 153.55 204.95 153.2 204.95 152.95 205.5 152.95 L206.65 152.8 Q207.35 152.65 207.6 150.9 L207.75 143.55 207.7 130.2 207.65 129.85 Q203.55 129.05 201.85 125.75 L201.0 122.55 202.05 124.6 Q203.65 126.75 206.2 127.15 L209.7 127.6 214.85 127.5 221.55 128.0 Q225.5 128.85 227.8 131.45" fill="#ffffff" fill-rule="evenodd" stroke="none"/>
    <path d="M93.95 152.25 Q98.65 152.25 101.4 149.8 104.1 147.3 104.1 141.2 104.1 135.75 101.0 132.55 97.55 129.1 91.8 129.1 L89.7 129.35 Q89.3 129.55 89.3 130.05 L89.35 148.25 Q89.5 150.55 89.7 150.9 90.65 152.25 93.95 152.25 M105.3 131.45 Q108.45 135.0 108.45 140.2 108.45 145.95 104.9 149.8 101.15 153.9 94.1 153.9 L90.35 153.65 87.2 153.45 83.1 153.55 Q82.45 153.55 82.45 153.2 82.45 152.95 83.0 152.95 L84.15 152.8 Q84.85 152.65 85.1 150.9 L85.25 143.55 85.2 130.2 85.15 129.85 Q81.05 129.05 79.35 125.75 L78.5 122.55 79.55 124.6 Q81.15 126.75 83.7 127.15 L87.2 127.6 92.35 127.5 99.0 128.0 Q103.0 128.85 105.3 131.45" fill="#ffffff" fill-rule="evenodd" stroke="none"/>
    <path d="M310.6 116.3 L311.9 114.3 311.75 116.2 Q311.2 118.35 309.5 119.7 308.2 120.65 306.35 121.1 L304.8 124.9 Q302.3 131.8 295.65 152.2 L295.0 153.9 294.3 154.35 Q293.75 154.35 292.9 152.1 L283.3 129.1 283.25 129.1 279.15 139.8 274.25 151.9 273.3 153.85 Q273.0 154.35 272.6 154.35 272.1 154.35 271.55 152.65 L260.8 120.2 Q258.55 119.0 258.3 116.5 L258.45 114.3 259.45 116.35 Q260.95 118.5 263.5 118.95 L269.9 119.8 270.05 120.0 267.4 120.65 267.45 121.0 268.5 125.2 Q269.15 127.9 274.35 144.75 L274.5 144.75 283.4 120.8 Q284.0 119.15 284.55 119.15 L285.2 119.7 285.9 121.3 295.45 144.45 295.6 144.45 301.7 123.85 302.15 121.2 Q302.15 119.8 299.95 119.8 299.15 119.8 299.15 119.4 299.15 118.95 300.25 118.95 L303.35 119.2 306.25 118.75 Q308.8 118.35 310.6 116.3" fill="#ffffff" fill-rule="evenodd" stroke="none"/>
    <path d="M53.65 114.3 L53.45 116.2 Q52.9 118.35 51.2 119.7 49.9 120.7 48.05 121.1 L46.55 124.9 Q44.1 131.6 37.35 152.2 L36.7 153.9 36.0 154.35 35.4 153.85 34.6 152.1 25.05 129.1 24.95 129.1 20.85 139.8 16.0 151.9 15.05 153.85 Q14.75 154.35 14.35 154.35 14.0 154.35 13.8 153.95 L13.3 152.65 2.5 120.2 2.55 120.2 Q0.25 119.0 0.0 116.5 L0.15 114.3 1.15 116.35 Q2.65 118.5 5.2 118.95 L11.6 119.8 11.75 120.0 9.1 120.65 9.2 121.0 10.2 125.2 13.15 135.15 16.1 144.75 16.2 144.75 25.15 120.8 Q25.75 119.15 26.3 119.15 26.65 119.15 26.9 119.7 L27.6 121.3 37.15 144.45 37.3 144.45 43.4 123.85 43.85 121.2 Q43.85 119.8 41.65 119.8 40.9 119.8 40.9 119.4 40.9 118.95 41.95 118.95 L45.05 119.2 47.95 118.75 Q50.5 118.35 52.3 116.3 L53.65 114.3" fill="#ffffff" fill-rule="evenodd" stroke="none"/>
    <path d="M71.3 174.5 L71.2 176.7 70.95 177.2 70.7 176.9 Q70.7 176.3 70.15 175.7 69.3 174.85 67.7 174.85 66.45 174.85 65.7 175.35 65.0 175.85 65.0 176.7 65.0 177.35 65.5 177.85 L67.4 179.25 68.0 179.65 Q70.05 180.9 70.9 181.95 71.7 182.95 71.7 184.25 71.7 186.3 69.6 187.4 68.15 188.1 66.0 188.1 L62.7 187.65 Q62.3 187.5 62.3 187.05 L62.4 184.7 Q62.5 184.2 62.7 184.2 62.9 184.2 62.9 184.5 L63.1 185.45 Q63.8 187.25 66.3 187.25 67.75 187.25 68.6 186.6 69.35 186.0 69.35 185.2 69.35 183.75 67.15 182.3 L66.1 181.65 Q62.75 179.55 62.75 177.4 62.75 175.9 64.2 174.95 65.65 174.0 67.95 174.0 L70.95 174.3 71.3 174.5" fill="#ffffff" fill-rule="evenodd" stroke="none"/>
    <path d="M94.45 177.3 Q93.2 177.3 92.95 177.75 L92.65 178.25 92.5 178.45 92.35 178.2 92.7 176.35 Q92.7 176.05 92.85 176.05 L93.55 176.25 101.55 176.3 102.65 176.25 103.1 176.2 103.2 176.5 103.15 178.35 103.0 178.6 Q102.85 178.6 102.85 178.3 L102.85 178.15 Q102.75 177.3 100.95 177.25 L98.95 177.2 98.95 183.4 99.05 186.7 Q99.15 187.4 99.65 187.5 L100.45 187.55 100.7 187.7 100.4 187.85 95.8 187.85 Q95.5 187.85 95.5 187.7 95.5 187.55 95.75 187.55 L96.3 187.5 Q96.65 187.4 96.75 186.65 L96.85 183.4 96.85 177.2 94.45 177.3" fill="#ffffff" fill-rule="evenodd" stroke="none"/>
    <path d="M120.35 176.3 L124.8 176.3 Q125.15 176.3 125.15 176.45 125.15 176.6 124.85 176.6 L124.4 176.65 Q123.85 176.7 123.85 177.45 L123.8 182.85 Q123.8 184.45 124.1 185.3 124.35 186.1 125.0 186.55 125.85 187.2 127.0 187.2 128.3 187.2 129.1 186.35 129.7 185.8 129.9 184.8 L130.05 182.65 130.0 177.45 Q129.95 176.85 129.35 176.65 L128.75 176.6 Q128.5 176.6 128.5 176.45 128.5 176.3 128.8 176.3 L132.55 176.3 Q132.9 176.3 132.9 176.45 L132.6 176.6 132.15 176.65 Q131.65 176.7 131.55 177.45 L131.55 182.35 Q131.55 185.7 130.0 186.95 128.75 188.05 126.65 188.05 124.25 188.05 123.05 187.0 121.6 185.75 121.6 182.95 L121.6 177.45 Q121.55 176.85 120.9 176.65 L120.3 176.6 Q120.05 176.6 120.05 176.45 120.05 176.3 120.35 176.3" fill="#ffffff" fill-rule="evenodd" stroke="none"/>
    <path d="M155.1 177.1 L154.15 177.2 153.95 177.5 153.95 185.5 154.15 186.6 Q154.65 187.2 156.2 187.2 158.4 187.2 159.65 186.15 161.0 185.05 161.0 182.35 161.0 179.8 159.55 178.55 157.95 177.1 155.1 177.1 M161.8 178.05 Q163.3 179.45 163.3 181.9 163.3 184.45 161.55 186.2 159.75 188.0 156.25 188.0 L154.35 187.9 152.75 187.8 150.75 187.85 Q150.45 187.85 150.45 187.7 L150.7 187.55 151.25 187.5 Q151.6 187.4 151.75 186.65 L151.8 177.45 Q151.75 176.85 151.1 176.65 L150.45 176.6 150.2 176.45 Q150.2 176.3 150.55 176.3 L155.4 176.3 158.7 176.5 Q160.65 176.9 161.8 178.05" fill="#ffffff" fill-rule="evenodd" stroke="none"/>
    <path d="M182.2 176.65 L181.65 176.6 181.4 176.4 181.75 176.3 185.95 176.3 186.25 176.4 186.0 176.6 185.55 176.65 Q184.95 176.7 184.95 177.45 L184.95 186.75 Q185.1 187.4 185.6 187.5 L186.4 187.55 186.65 187.7 Q186.65 187.85 186.35 187.85 L181.75 187.85 Q181.45 187.85 181.45 187.7 181.45 187.55 181.7 187.55 L182.25 187.5 Q182.65 187.35 182.7 186.75 L182.8 183.4 182.75 177.45 Q182.7 176.8 182.2 176.65" fill="#ffffff" fill-rule="evenodd" stroke="none"/>
    <path d="M210.55 176.9 Q208.95 176.9 208.0 177.85 206.75 179.0 206.75 181.6 206.75 184.05 208.05 185.6 209.35 187.25 211.55 187.25 212.85 187.25 213.75 186.45 215.15 185.2 215.15 182.35 215.15 179.85 213.85 178.35 212.55 176.9 210.55 176.9 M211.05 176.05 Q214.05 176.05 215.8 177.6 217.5 179.15 217.5 181.8 217.5 184.5 215.7 186.25 213.9 188.05 210.9 188.05 207.7 188.05 205.9 186.1 204.4 184.4 204.4 182.05 204.4 179.75 205.95 178.1 207.75 176.05 211.05 176.05" fill="#ffffff" fill-rule="evenodd" stroke="none"/>
    <path d="M243.9 179.65 Q245.9 180.9 246.75 181.95 247.55 182.95 247.55 184.25 247.55 186.3 245.45 187.4 244.05 188.1 241.9 188.1 L238.6 187.65 Q238.15 187.45 238.15 187.05 238.15 185.45 238.3 184.7 238.3 184.2 238.55 184.2 L238.75 184.5 238.95 185.45 Q239.65 187.25 242.2 187.25 243.6 187.25 244.45 186.6 245.2 186.0 245.2 185.2 245.2 183.75 243.0 182.3 L241.95 181.65 Q238.65 179.55 238.65 177.4 238.65 175.9 240.05 174.95 241.5 174.0 243.85 174.0 L246.85 174.3 247.15 174.5 247.05 176.7 246.8 177.2 246.6 176.9 Q246.6 176.35 246.0 175.7 245.15 174.85 243.55 174.85 242.3 174.85 241.6 175.35 240.85 175.85 240.85 176.7 240.85 177.8 243.25 179.25 L243.9 179.65" fill="#ffffff" fill-rule="evenodd" stroke="none"/>
    <path d="M55.95 164.4 L253.95 164.4 253.95 165.9 55.95 165.9 55.95 164.4" fill="#ffffff" fill-rule="evenodd" stroke="none"/>
  </g>
</svg>
