<?xml version="1.0" encoding="UTF-8" standalone="no"?>
<svg xmlns:xlink="http://www.w3.org/1999/xlink" height="194.0px" width="193.9px" xmlns="http://www.w3.org/2000/svg">
  <g transform="matrix(1.0, 0.0, 0.0, 1.0, 0.0, 0.0)">
    <path d="M91.3 176.85 L92.05 176.85 92.05 176.9 92.9 176.9 92.95 176.95 95.6 177.0 95.35 194.0 83.25 193.05 85.65 176.25 90.2 176.75 90.6 176.75 90.65 176.8 91.25 176.8 91.3 176.85 M49.15 161.2 Q53.2 164.2 57.45 166.6 L49.0 181.35 Q43.45 178.15 38.9 174.7 L49.1 161.1 49.15 161.2 M29.65 166.85 Q25.25 162.7 21.5 157.95 L34.7 147.25 Q37.65 150.95 41.0 154.15 L41.0 154.2 41.1 154.3 41.15 154.3 41.15 154.35 41.2 154.35 41.2 154.4 41.25 154.4 41.25 154.45 41.3 154.45 41.3 154.5 41.35 154.5 41.35 154.55 41.4 154.55 41.45 154.6 41.45 154.65 29.65 166.85 M71.5 172.9 L71.6 172.9 71.7 172.95 71.75 172.95 71.8 173.0 71.9 173.0 72.0 173.05 72.05 173.05 72.1 173.1 72.2 173.1 72.25 173.15 72.4 173.15 72.4 173.2 72.55 173.2 72.55 173.25 72.7 173.25 72.7 173.3 72.85 173.3 72.85 173.35 73.0 173.35 73.05 173.4 73.15 173.4 73.2 173.45 73.3 173.45 73.35 173.5 73.5 173.5 73.5 173.55 73.65 173.55 73.65 173.6 73.8 173.6 73.85 173.65 74.0 173.65 74.0 173.7 74.15 173.7 74.2 173.75 74.35 173.75 74.35 173.8 74.5 173.8 74.55 173.85 74.65 173.85 74.7 173.9 74.85 173.9 74.85 173.95 75.0 173.95 75.05 174.0 75.15 174.0 75.85 174.2 71.4 190.6 Q65.5 189.0 59.9 186.7 L66.4 171.0 71.2 172.8 71.3 172.8 71.35 172.85 71.45 172.85 71.5 172.9 M14.5 148.05 Q11.5 143.3 8.75 137.4 L24.2 130.3 24.65 131.2 24.65 131.25 24.7 131.3 24.7 131.4 24.75 131.45 24.75 131.5 24.8 131.55 24.8 131.6 24.85 131.65 24.85 131.75 24.9 131.75 24.9 131.85 24.95 131.85 24.95 131.95 25.0 131.95 25.0 132.05 25.05 132.05 25.05 132.1 25.15 132.3 25.15 132.35 25.25 132.55 25.3 132.55 25.35 132.65 25.35 132.7 25.55 133.15 25.6 133.15 25.65 133.25 25.65 133.3 25.7 133.35 25.7 133.4 25.75 133.5 25.8 133.55 25.8 133.6 25.85 133.65 25.85 133.75 25.9 133.75 25.9 133.8 25.95 133.85 25.95 133.9 26.0 133.95 26.0 134.0 26.05 134.05 26.05 134.1 26.1 134.15 26.1 134.2 26.15 134.2 26.15 134.3 26.2 134.3 26.2 134.4 26.25 134.45 26.25 134.5 26.3 134.5 26.3 134.55 26.35 134.6 26.35 134.7 26.4 134.7 26.45 134.8 26.5 134.95 28.95 139.1 14.5 148.05 M0.0 97.0 L0.2 90.15 17.15 91.35 17.1 92.9 17.05 93.0 17.05 94.15 17.0 94.15 17.0 99.9 17.05 99.9 17.1 101.35 0.1 102.25 0.0 97.0 M18.25 111.25 L18.25 111.4 18.3 111.5 18.3 111.75 18.35 111.75 18.35 112.0 18.4 112.0 18.4 112.25 18.45 112.3 18.45 112.4 19.2 115.8 19.2 115.95 19.25 115.95 19.25 116.1 19.3 116.2 19.3 116.35 19.35 116.35 19.35 116.55 19.4 116.55 19.4 116.7 19.45 116.8 19.45 116.85 20.6 121.0 4.4 126.05 Q2.5 119.95 1.5 114.3 L18.25 111.25 M20.35 73.9 L20.35 74.05 20.3 74.05 20.3 74.2 20.25 74.2 20.25 74.4 20.2 74.4 20.2 74.55 20.15 74.6 20.15 74.65 20.1 74.75 20.1 74.9 20.05 74.9 20.05 75.05 19.75 76.05 19.75 76.1 19.7 76.2 19.7 76.3 19.65 76.35 19.65 76.5 19.6 76.6 19.6 76.65 19.55 76.75 19.55 76.9 19.5 76.9 19.5 77.1 19.45 77.1 19.45 77.25 19.4 77.3 19.4 77.5 19.35 77.5 19.35 77.65 19.3 77.75 18.5 81.45 1.8 78.15 Q3.0 72.3 4.9 66.4 L21.05 71.8 20.4 73.8 20.35 73.9 M28.7 55.25 L28.7 55.35 28.65 55.35 28.65 55.4 28.6 55.45 28.6 55.5 28.55 55.55 28.55 55.6 28.5 55.6 28.5 55.65 28.45 55.7 28.45 55.75 28.4 55.8 28.4 55.85 28.35 55.85 28.3 55.95 25.55 61.0 25.5 61.05 25.5 61.1 25.45 61.1 25.45 61.2 25.4 61.2 25.4 61.3 25.35 61.3 25.35 61.4 25.3 61.4 25.3 61.5 25.25 61.55 25.25 61.6 25.2 61.65 25.2 61.7 25.15 61.7 24.8 62.5 9.45 55.15 Q12.0 49.9 15.35 44.6 L29.65 53.8 28.85 55.05 28.75 55.25 28.7 55.25 M41.4 39.5 L41.3 39.55 41.2 39.65 41.2 39.7 41.15 39.75 41.1 39.75 41.05 39.8 41.05 39.85 41.0 39.85 40.95 39.9 40.95 39.95 40.9 39.95 40.9 40.0 40.85 40.0 40.85 40.05 40.8 40.05 40.8 40.1 40.75 40.1 40.75 40.15 40.7 40.15 40.7 40.2 40.65 40.2 40.65 40.25 40.6 40.25 40.6 40.3 40.55 40.3 40.55 40.35 40.5 40.35 40.5 40.4 40.45 40.4 40.45 40.45 40.4 40.45 40.3 40.55 40.3 40.6 40.25 40.6 40.25 40.65 40.2 40.65 40.2 40.7 40.15 40.7 40.15 40.75 40.1 40.75 40.05 40.8 40.05 40.85 40.0 40.85 40.0 40.9 39.95 40.9 39.95 40.95 39.9 40.95 39.9 41.0 39.85 41.0 39.75 41.1 39.75 41.15 39.7 41.2 39.65 41.2 39.6 41.3 39.55 41.3 39.55 41.35 39.5 41.4 39.45 41.4 Q37.45 43.5 35.55 45.75 L22.55 34.85 Q26.3 30.3 30.85 26.05 L42.45 38.5 41.4 39.5 M106.4 176.45 L106.8 176.45 106.9 176.4 107.05 176.4 115.45 174.9 119.35 191.4 Q113.35 192.85 107.4 193.45 L105.6 176.55 105.95 176.55 106.0 176.5 106.4 176.5 106.4 176.45 M125.65 171.75 L125.75 171.7 125.8 171.7 125.8 171.65 125.9 171.65 126.0 171.6 126.05 171.6 126.15 171.55 126.2 171.5 126.3 171.5 126.3 171.45 126.45 171.45 126.45 171.4 126.55 171.4 126.55 171.35 126.7 171.35 126.7 171.3 126.8 171.3 126.8 171.25 126.9 171.25 126.95 171.2 127.05 171.2 127.05 171.15 127.2 171.15 127.2 171.1 127.3 171.1 127.3 171.05 127.4 171.05 127.45 171.0 127.55 171.0 127.55 170.95 127.7 170.9 134.15 167.9 142.05 182.95 Q136.15 186.0 130.95 187.9 L125.0 171.95 125.4 171.85 125.5 171.8 125.65 171.75 M148.75 158.0 L148.8 158.0 148.8 157.95 148.85 157.95 148.85 157.9 148.9 157.9 148.9 157.85 148.95 157.85 148.95 157.8 149.0 157.8 149.15 157.65 149.2 157.65 149.2 157.6 149.25 157.55 149.35 157.5 150.5 156.5 161.9 169.1 Q157.35 173.2 152.4 176.65 L142.65 162.7 145.85 160.35 145.95 160.3 146.1 160.15 146.15 160.15 146.15 160.1 146.2 160.1 146.25 160.05 146.3 160.05 146.3 160.0 146.35 160.0 146.35 159.95 146.4 159.95 146.5 159.85 146.55 159.85 146.55 159.8 146.6 159.8 146.6 159.75 146.65 159.75 146.75 159.65 146.8 159.65 146.8 159.6 146.85 159.6 146.85 159.55 146.9 159.55 147.05 159.4 147.1 159.4 147.1 159.35 147.15 159.35 147.15 159.3 147.2 159.3 147.25 159.25 147.3 159.25 147.3 159.2 147.35 159.2 147.35 159.15 147.4 159.15 147.55 159.0 147.6 159.0 147.6 158.95 147.65 158.9 147.7 158.9 147.8 158.8 147.85 158.8 147.85 158.75 147.9 158.75 147.9 158.7 147.95 158.7 147.95 158.65 148.0 158.65 148.15 158.5 148.2 158.5 148.2 158.45 148.25 158.45 148.25 158.4 148.3 158.4 148.3 158.35 148.35 158.35 148.4 158.3 148.45 158.3 148.45 158.25 148.5 158.25 148.5 158.2 148.55 158.2 148.55 158.15 148.6 158.15 148.6 158.1 148.65 158.1 148.7 158.05 148.75 158.05 148.75 158.0 M161.65 144.1 L161.7 144.05 163.55 141.4 177.7 150.85 Q174.35 155.9 170.35 160.45 L157.5 149.35 161.25 144.7 161.25 144.65 161.3 144.6 161.3 144.55 161.35 144.55 161.35 144.5 161.4 144.5 161.4 144.45 161.45 144.4 161.45 144.35 161.5 144.35 161.5 144.3 161.55 144.3 161.55 144.25 161.6 144.15 161.65 144.15 161.65 144.1 M169.2 131.5 L169.2 131.4 169.25 131.4 169.25 131.3 169.3 131.3 169.3 131.25 169.35 131.15 Q171.15 127.35 172.45 123.55 L188.5 129.2 Q186.35 135.25 183.8 140.35 L168.55 132.75 168.85 132.15 168.9 132.15 168.95 132.05 168.95 132.0 169.0 131.95 169.0 131.85 169.05 131.85 169.05 131.75 169.1 131.7 169.1 131.65 169.15 131.6 169.15 131.55 169.2 131.5 M148.45 35.8 L148.45 35.75 148.35 35.7 148.25 35.6 145.95 33.75 156.35 20.35 Q161.05 23.95 165.45 28.35 L153.45 40.35 149.35 36.55 149.25 36.45 149.2 36.45 149.15 36.4 149.15 36.35 149.1 36.35 148.95 36.2 148.9 36.2 148.9 36.15 148.85 36.15 148.85 36.1 148.8 36.1 148.8 36.05 148.75 36.05 148.75 36.0 148.7 36.0 148.7 35.95 148.65 35.95 148.6 35.9 148.55 35.9 148.55 35.85 148.5 35.8 148.45 35.8 M160.1 47.85 L173.5 37.4 Q177.0 41.9 180.35 47.4 L165.75 56.1 Q162.75 51.2 160.1 47.85 M193.6 105.55 Q193.05 111.7 191.8 117.5 L175.2 113.95 176.0 109.65 176.0 109.45 176.05 109.35 176.05 109.1 176.1 109.05 176.1 108.75 176.15 108.7 176.65 104.05 193.6 105.55 M192.7 81.4 Q193.65 87.3 193.9 93.45 L176.9 94.05 176.85 92.1 176.8 92.1 176.8 91.4 176.75 91.3 176.75 90.75 176.7 90.6 176.7 90.1 176.65 89.9 176.0 84.6 176.0 84.4 175.95 84.3 175.95 84.1 192.7 81.4 M185.85 58.15 Q188.25 63.55 190.05 69.55 L173.7 74.35 172.65 71.0 172.6 70.85 172.6 70.8 172.55 70.75 172.55 70.7 172.5 70.65 172.5 70.55 172.45 70.5 172.45 70.4 172.4 70.35 172.4 70.2 172.35 70.2 172.35 70.1 172.3 70.1 172.3 69.95 172.25 69.95 172.25 69.8 172.2 69.8 172.2 69.65 172.15 69.65 172.15 69.55 172.1 69.55 172.1 69.4 172.05 69.4 172.05 69.25 172.0 69.25 172.0 69.15 171.95 69.1 171.95 69.0 171.9 69.0 171.9 68.85 171.85 68.85 171.85 68.75 171.8 68.7 171.8 68.6 171.75 68.6 171.75 68.45 171.7 68.45 171.7 68.35 171.65 68.3 171.65 68.2 171.6 68.2 171.6 68.1 171.55 68.05 171.55 67.95 171.5 67.95 171.5 67.85 171.45 67.8 171.45 67.7 171.4 67.7 171.4 67.6 171.35 67.55 171.35 67.45 171.3 67.45 171.3 67.4 171.25 67.3 171.25 67.2 171.2 67.2 171.2 67.05 171.15 67.05 171.15 67.0 171.1 66.95 171.1 66.85 171.05 66.8 171.05 66.75 171.0 66.7 171.0 66.6 170.95 66.55 170.95 66.45 170.9 66.4 170.9 66.35 170.85 66.35 170.85 66.2 170.8 66.15 170.8 66.1 170.75 66.1 170.75 65.95 170.7 65.95 170.7 65.85 170.65 65.85 170.65 65.75 170.6 65.7 170.6 65.65 170.55 65.6 170.55 65.55 170.5 65.5 170.5 65.4 170.45 65.4 170.45 65.3 170.4 65.25 170.4 65.15 170.35 65.15 170.35 65.05 170.3 65.05 170.3 65.0 185.85 58.15 M130.2 24.2 L130.15 24.2 128.8 23.6 135.55 8.0 Q141.2 10.45 146.35 13.5 L137.7 28.15 Q134.0 26.0 131.05 24.65 L130.95 24.55 130.85 24.5 130.8 24.5 130.7 24.45 130.65 24.45 130.6 24.4 130.5 24.4 130.5 24.35 130.4 24.35 130.35 24.3 130.3 24.3 130.2 24.25 130.2 24.2 M109.65 18.0 L112.3 1.25 Q118.15 2.15 124.15 3.9 L119.4 20.2 Q114.4 18.8 109.65 18.0 M88.85 17.45 L88.7 17.45 87.0 17.65 84.9 0.75 97.0 0.0 100.25 0.1 99.7 17.05 97.2 17.05 97.2 17.0 96.75 17.0 96.75 17.05 94.15 17.05 94.1 17.1 92.95 17.1 92.85 17.15 92.1 17.15 92.0 17.2 91.3 17.2 91.25 17.25 90.6 17.25 90.6 17.3 90.0 17.3 90.0 17.35 89.45 17.35 89.45 17.4 88.95 17.4 88.85 17.45 M77.2 19.5 Q72.75 20.6 67.65 22.55 L61.45 6.75 Q66.95 4.55 73.0 3.0 L77.2 19.5 M40.2 18.35 Q45.45 14.65 50.45 11.9 L58.6 26.8 58.55 26.85 58.5 26.85 58.5 26.9 58.4 26.9 58.4 26.95 58.3 26.95 58.3 27.0 58.25 27.0 58.2 27.05 58.15 27.05 58.1 27.1 58.05 27.1 58.05 27.15 58.0 27.15 57.95 27.2 57.9 27.2 57.85 27.25 57.8 27.25 57.75 27.3 57.7 27.3 57.65 27.35 57.6 27.35 57.6 27.4 57.5 27.4 57.5 27.45 57.4 27.45 57.3 27.55 57.25 27.55 57.2 27.6 57.0 27.7 56.9 27.8 56.8 27.85 56.65 27.9 56.55 28.0 56.5 28.0 56.45 28.05 56.4 28.05 56.3 28.1 56.2 28.2 56.15 28.2 55.95 28.3 55.85 28.4 55.65 28.5 55.55 28.6 55.45 28.65 55.4 28.65 55.35 28.7 55.3 28.7 55.2 28.8 55.15 28.8 55.1 28.85 55.05 28.85 55.05 28.9 54.85 29.0 54.8 29.05 54.75 29.05 54.65 29.15 54.55 29.15 54.55 29.2 54.5 29.2 54.5 29.25 54.45 29.25 54.4 29.3 54.35 29.3 54.3 29.35 54.25 29.35 54.25 29.4 54.2 29.4 54.15 29.45 54.1 29.45 54.1 29.5 54.05 29.5 54.0 29.55 53.95 29.55 53.95 29.6 53.85 29.6 53.85 29.65 53.8 29.65 53.75 29.7 53.7 29.7 53.7 29.75 53.65 29.75 53.55 29.85 53.5 29.85 53.45 29.9 53.4 29.9 53.4 29.95 53.35 29.95 53.3 30.0 53.25 30.0 53.15 30.05 53.05 30.15 52.95 30.2 52.85 30.3 50.15 32.15 40.2 18.35" fill="#4d4d4d" fill-rule="evenodd" stroke="none"/>
    <path d="M90.65 176.8 L91.25 176.8 91.3 176.85 92.05 176.85 92.05 176.9 92.9 176.9 92.95 176.95 95.6 177.0 95.55 181.0 85.1 180.2 85.65 176.25 87.5 176.45 87.6 176.5 87.95 176.5 88.0 176.55 88.35 176.55 88.45 176.6 88.9 176.6 88.95 176.65 89.4 176.65 89.45 176.7 90.0 176.7 90.0 176.75 90.6 176.75 90.65 176.8 M55.45 165.45 L55.5 165.45 55.7 165.55 55.7 165.6 55.75 165.6 55.8 165.65 55.85 165.65 55.9 165.7 55.95 165.7 55.95 165.75 56.05 165.75 56.05 165.8 56.15 165.85 56.2 165.85 56.25 165.9 56.3 165.9 56.3 165.95 56.4 165.95 56.4 166.0 56.45 166.0 56.45 166.05 56.55 166.05 56.55 166.1 56.65 166.1 56.65 166.15 56.7 166.15 56.75 166.2 56.8 166.2 56.8 166.25 56.9 166.25 56.9 166.3 56.95 166.3 57.0 166.35 57.05 166.35 57.05 166.4 57.15 166.4 57.15 166.45 57.25 166.45 57.25 166.5 57.3 166.5 57.35 166.55 57.4 166.55 57.45 166.6 55.45 170.05 Q50.7 167.35 46.7 164.3 L49.1 161.1 49.15 161.15 55.35 165.35 55.45 165.45 M38.55 151.7 L38.65 151.8 38.75 151.85 38.75 151.9 39.15 152.3 39.15 152.35 39.2 152.35 39.2 152.4 39.25 152.4 39.25 152.45 39.3 152.45 39.3 152.5 39.35 152.5 39.35 152.55 39.4 152.55 39.4 152.6 39.45 152.6 39.45 152.65 39.5 152.65 39.5 152.7 39.55 152.7 39.55 152.75 39.6 152.75 39.6 152.8 39.65 152.8 39.65 152.85 39.7 152.85 39.7 152.9 39.75 152.9 39.75 152.95 39.8 153.0 39.85 153.0 39.9 153.05 39.9 153.1 41.45 154.65 38.7 157.5 Q34.9 153.85 31.6 149.8 L34.7 147.25 38.55 151.7 M28.95 139.1 L25.55 141.2 Q22.65 136.55 20.55 131.95 L24.2 130.3 Q26.3 134.8 28.95 139.1 M67.75 171.55 L67.9 171.55 67.9 171.6 68.0 171.6 68.05 171.65 68.15 171.65 68.2 171.7 68.25 171.7 68.3 171.75 68.4 171.75 68.45 171.8 68.55 171.8 68.55 171.85 68.65 171.85 68.7 171.9 68.8 171.9 68.9 171.95 68.95 172.0 Q72.65 173.3 75.85 174.2 L74.8 178.05 Q69.75 176.7 64.9 174.65 L66.4 171.0 66.7 171.1 66.8 171.15 66.95 171.2 67.05 171.25 67.1 171.25 67.15 171.3 67.25 171.3 67.3 171.35 67.35 171.35 67.4 171.4 67.5 171.4 67.5 171.45 67.6 171.45 67.65 171.5 67.75 171.5 67.75 171.55 M13.2 91.05 L17.15 91.35 17.1 101.35 13.1 101.55 13.0 97.0 13.2 91.05 M18.75 113.75 L18.75 113.9 18.8 114.0 18.8 114.2 18.85 114.2 18.85 114.45 18.9 114.45 18.9 114.65 18.95 114.65 18.95 114.85 19.0 114.9 19.0 115.1 19.05 115.1 19.05 115.3 19.1 115.3 19.1 115.5 19.15 115.55 19.15 115.75 19.2 115.75 19.2 115.95 19.25 115.95 19.25 116.15 19.3 116.2 19.3 116.35 19.35 116.35 19.35 116.55 19.4 116.55 19.4 116.7 19.45 116.75 19.45 116.95 19.5 116.95 19.5 117.15 19.55 117.15 19.55 117.3 19.6 117.35 19.6 117.5 19.65 117.55 19.65 117.7 19.7 117.8 19.7 117.85 19.75 117.95 19.75 118.0 19.8 118.1 20.6 121.0 16.8 122.15 Q15.2 117.15 14.3 112.0 L18.25 111.25 18.65 113.45 18.7 113.55 18.7 113.75 18.75 113.75 M20.45 73.6 L20.45 73.7 20.4 73.75 20.4 73.9 20.35 73.9 20.35 74.05 20.3 74.05 20.3 74.2 20.25 74.2 20.25 74.4 20.2 74.4 20.2 74.55 20.15 74.6 20.15 74.65 20.1 74.75 20.1 74.8 20.05 74.9 20.05 75.05 20.0 75.2 Q19.1 78.25 18.5 81.45 L14.55 80.65 Q15.6 75.5 17.25 70.5 L21.05 71.8 20.5 73.5 20.45 73.6 M29.65 53.85 L29.5 54.0 29.5 54.05 29.45 54.15 29.35 54.25 29.3 54.35 29.2 54.45 29.15 54.6 29.1 54.7 29.05 54.7 28.95 54.9 28.95 54.95 28.85 55.05 28.75 55.25 28.7 55.3 28.6 55.5 28.55 55.5 28.55 55.6 28.5 55.6 28.2 56.15 28.15 56.2 28.05 56.4 27.95 56.5 27.95 56.55 27.85 56.75 27.75 56.85 27.7 57.0 27.6 57.2 27.55 57.2 27.55 57.25 27.5 57.3 27.5 57.35 27.45 57.45 27.35 57.55 27.3 57.7 24.8 62.5 21.15 60.8 Q23.65 55.7 26.3 51.6 L29.65 53.8 29.65 53.85 M39.7 35.55 L42.45 38.5 Q40.65 40.1 38.15 42.8 L38.0 42.95 38.0 43.0 37.95 43.0 37.95 43.05 37.9 43.05 37.9 43.1 37.85 43.1 37.85 43.15 37.8 43.15 37.8 43.2 37.6 43.4 37.6 43.45 37.55 43.45 37.55 43.5 37.5 43.5 37.5 43.55 37.45 43.55 37.45 43.6 37.4 43.65 37.35 43.65 37.35 43.7 37.3 43.75 37.25 43.75 35.55 45.75 32.5 43.15 Q36.0 39.05 39.7 35.55 M55.3 28.7 L55.3 28.75 55.25 28.75 55.2 28.8 55.15 28.8 55.1 28.85 55.05 28.85 55.05 28.9 55.0 28.9 54.95 28.95 54.9 28.95 54.9 29.0 54.8 29.0 54.8 29.05 54.75 29.05 54.75 29.1 54.65 29.1 54.65 29.15 54.6 29.15 54.55 29.2 54.5 29.2 54.5 29.25 54.45 29.25 54.4 29.3 54.35 29.3 54.3 29.35 54.25 29.35 54.25 29.4 54.2 29.4 54.1 29.5 54.05 29.5 54.0 29.55 53.95 29.55 53.85 29.65 53.8 29.65 53.75 29.7 53.7 29.7 53.6 29.8 53.5 29.85 53.4 29.95 53.3 30.0 50.35 32.0 50.25 32.1 50.15 32.15 47.85 28.9 Q52.1 25.8 56.7 23.3 L58.6 26.8 55.6 28.55 55.3 28.7 M115.45 174.9 L116.35 178.75 106.05 180.55 105.6 176.55 109.7 176.0 109.95 176.0 110.0 175.95 110.25 175.95 110.3 175.9 110.55 175.9 110.55 175.85 110.85 175.85 110.95 175.8 115.45 174.9 M128.95 170.35 L129.05 170.35 129.05 170.3 129.2 170.3 129.2 170.25 129.3 170.25 129.35 170.2 129.45 170.15 129.5 170.15 129.55 170.1 129.6 170.1 129.8 170.0 129.85 170.0 129.85 169.95 129.95 169.95 129.95 169.9 130.1 169.9 130.2 169.85 130.2 169.8 130.35 169.75 133.5 168.2 133.65 168.15 133.75 168.1 133.8 168.05 133.85 168.05 133.9 168.0 134.0 167.95 134.05 167.95 134.1 167.9 134.15 167.9 136.0 171.45 Q131.0 174.0 126.4 175.7 L125.0 171.95 125.4 171.85 125.9 171.65 126.0 171.6 126.05 171.6 126.15 171.55 126.3 171.5 126.4 171.45 126.45 171.45 126.55 171.4 126.55 171.35 126.7 171.35 126.8 171.3 126.8 171.25 126.95 171.25 126.95 171.2 127.05 171.2 127.05 171.15 127.2 171.15 127.2 171.1 127.3 171.1 127.35 171.05 127.4 171.05 127.45 171.0 127.55 171.0 127.55 170.95 127.65 170.95 127.7 170.9 127.8 170.9 127.8 170.85 127.9 170.85 127.9 170.8 128.0 170.8 128.05 170.75 128.15 170.75 128.15 170.7 128.25 170.7 128.3 170.65 128.35 170.65 128.4 170.6 128.5 170.6 128.5 170.55 128.6 170.55 128.6 170.5 128.75 170.5 128.75 170.45 128.85 170.45 128.85 170.4 128.95 170.4 128.95 170.35 M150.5 156.5 L153.2 159.45 Q149.45 162.85 144.95 166.0 L142.65 162.7 144.7 161.25 145.0 161.0 145.05 161.0 145.15 160.9 145.25 160.85 145.25 160.8 145.35 160.75 145.5 160.6 145.55 160.6 145.6 160.55 145.65 160.55 145.65 160.5 145.75 160.45 145.8 160.4 145.85 160.4 145.85 160.35 145.9 160.35 145.9 160.3 145.95 160.3 146.05 160.2 146.1 160.2 146.1 160.15 146.15 160.15 146.15 160.1 146.2 160.1 146.25 160.05 146.3 160.05 146.3 160.0 146.35 160.0 146.35 159.95 146.4 159.95 146.5 159.85 146.55 159.85 146.55 159.8 146.6 159.8 146.6 159.75 146.65 159.75 146.75 159.65 146.8 159.65 146.8 159.6 146.85 159.6 146.85 159.55 146.9 159.55 146.9 159.5 146.95 159.5 147.05 159.4 147.1 159.4 147.1 159.35 147.15 159.35 147.15 159.3 147.2 159.3 147.25 159.25 147.3 159.25 147.3 159.2 147.35 159.2 147.35 159.15 147.4 159.15 147.4 159.1 147.45 159.1 147.55 159.0 147.6 159.0 147.6 158.95 147.65 158.95 147.65 158.9 147.7 158.9 147.7 158.85 147.75 158.85 147.8 158.8 147.85 158.8 147.85 158.75 147.9 158.75 147.9 158.7 147.95 158.7 147.95 158.65 148.0 158.65 148.15 158.5 148.2 158.5 148.2 158.45 148.25 158.4 148.3 158.4 148.45 158.25 148.5 158.25 148.5 158.2 148.55 158.15 148.6 158.15 148.75 158.0 148.8 158.0 148.8 157.95 148.85 157.9 148.9 157.9 149.05 157.75 149.1 157.75 149.15 157.65 149.2 157.65 149.35 157.5 149.4 157.5 149.45 157.4 149.5 157.4 149.65 157.2 150.5 156.5 M162.65 142.7 L162.7 142.65 163.55 141.4 166.9 143.6 Q164.0 147.95 160.5 151.95 L157.5 149.35 161.85 143.85 161.85 143.8 161.9 143.75 161.95 143.75 161.95 143.7 162.0 143.65 162.0 143.6 162.05 143.6 162.05 143.55 162.1 143.55 162.1 143.5 162.15 143.45 162.15 143.4 162.2 143.4 162.2 143.35 162.25 143.3 162.25 143.25 162.3 143.25 162.3 143.2 162.35 143.2 162.35 143.15 162.4 143.1 162.4 143.05 162.45 143.0 162.45 142.95 162.5 142.95 162.5 142.9 162.55 142.9 162.55 142.85 162.65 142.75 162.65 142.7 M170.55 128.5 L170.65 128.3 170.7 128.15 172.45 123.55 176.25 124.9 Q174.6 129.6 172.15 134.55 L168.55 132.75 169.05 131.8 169.05 131.75 169.1 131.65 169.15 131.65 169.15 131.55 169.2 131.5 169.2 131.45 169.25 131.4 169.25 131.35 169.3 131.3 169.3 131.25 169.35 131.2 169.35 131.1 169.4 131.1 169.4 131.0 169.45 131.0 169.45 130.9 169.5 130.85 169.5 130.8 169.55 130.75 169.55 130.7 169.6 130.65 169.6 130.55 169.65 130.55 169.65 130.45 169.7 130.45 169.7 130.35 169.75 130.35 169.75 130.25 169.8 130.25 169.8 130.15 169.85 130.15 169.85 130.0 169.9 130.0 169.9 129.9 169.95 129.9 169.95 129.8 170.0 129.8 170.0 129.7 170.05 129.7 170.05 129.6 170.1 129.55 170.1 129.45 170.15 129.45 170.15 129.35 170.2 129.3 170.2 129.25 170.25 129.2 170.25 129.15 170.3 129.1 170.3 129.05 170.35 129.0 170.35 128.9 170.4 128.9 170.4 128.8 170.45 128.8 170.45 128.65 170.5 128.65 170.5 128.6 170.55 128.55 170.55 128.5 M175.9 110.3 L175.9 110.1 175.95 109.95 176.65 104.05 180.65 104.4 Q180.2 109.8 179.1 114.8 L175.2 113.95 175.8 110.75 175.85 110.6 175.85 110.45 175.9 110.3 M175.95 84.3 L175.95 84.1 179.9 83.45 Q180.75 88.8 180.9 93.9 L176.9 94.05 176.75 91.1 176.75 90.75 176.7 90.6 176.7 90.05 176.65 90.05 176.65 89.55 176.6 89.45 176.6 89.05 176.15 85.4 176.1 85.25 176.1 85.0 176.05 84.95 176.05 84.7 176.0 84.65 176.0 84.4 175.95 84.3 M171.35 67.45 L171.3 67.45 171.3 67.4 170.3 65.0 173.95 63.4 Q176.05 68.15 177.55 73.25 L173.7 74.35 171.95 69.0 171.9 69.0 171.9 68.85 171.85 68.85 171.85 68.75 171.8 68.7 171.8 68.6 171.75 68.6 171.75 68.45 171.7 68.45 171.7 68.35 171.65 68.3 171.65 68.2 171.6 68.2 171.6 68.1 171.55 68.05 171.55 67.95 171.5 67.95 171.5 67.85 171.45 67.8 171.45 67.7 171.4 67.7 171.4 67.6 171.35 67.55 171.35 67.45 M145.95 33.75 L148.4 30.6 Q152.75 34.0 156.3 37.55 L153.45 40.35 153.35 40.25 153.3 40.25 153.25 40.2 153.25 40.15 153.15 40.05 153.1 40.05 153.1 40.0 153.05 40.0 153.05 39.95 153.0 39.95 153.0 39.9 152.95 39.9 152.95 39.85 152.9 39.85 152.9 39.8 152.85 39.8 152.85 39.75 152.8 39.75 152.8 39.7 152.75 39.7 152.75 39.65 152.7 39.65 152.7 39.6 152.65 39.6 152.6 39.55 152.6 39.5 152.5 39.45 Q149.55 36.55 145.95 33.75 M161.0 49.1 L161.0 49.0 160.95 49.0 160.9 48.95 160.9 48.9 160.85 48.8 160.75 48.75 160.1 47.85 163.25 45.4 Q166.6 49.7 169.15 54.05 L165.75 56.1 163.55 52.65 163.45 52.45 163.4 52.45 163.4 52.4 163.35 52.35 163.35 52.3 163.3 52.3 163.3 52.25 163.25 52.25 163.25 52.2 163.2 52.15 163.2 52.1 163.15 52.1 163.15 52.05 163.1 52.0 163.1 51.95 163.05 51.95 163.05 51.9 163.0 51.85 163.0 51.8 162.95 51.8 162.95 51.75 162.9 51.7 162.9 51.65 162.85 51.65 162.85 51.6 162.75 51.5 162.75 51.45 162.7 51.45 162.7 51.35 162.65 51.35 162.65 51.3 162.55 51.2 162.55 51.15 162.5 51.15 162.45 51.1 162.45 51.0 162.3 50.85 162.3 50.8 162.25 50.75 162.2 50.75 162.15 50.65 162.15 50.6 162.05 50.5 161.95 50.3 161.9 50.3 161.85 50.2 161.75 50.1 161.75 50.05 161.7 50.0 161.7 49.95 161.65 49.9 161.6 49.9 161.6 49.85 161.55 49.8 161.55 49.75 161.5 49.75 161.45 49.7 161.45 49.6 161.4 49.6 161.4 49.55 161.35 49.55 161.35 49.5 161.25 49.4 161.25 49.35 161.2 49.35 161.2 49.3 161.15 49.3 161.15 49.2 161.1 49.2 161.1 49.15 161.05 49.15 161.05 49.1 161.0 49.1 M128.8 23.6 L130.4 19.95 Q134.95 21.9 139.75 24.7 L137.7 28.15 Q133.75 25.8 128.8 23.6 M111.6 18.35 L109.65 18.0 110.25 14.05 Q115.15 14.85 120.5 16.35 L119.4 20.2 115.9 19.3 115.75 19.25 115.65 19.2 115.5 19.2 115.45 19.15 115.3 19.15 115.25 19.1 115.05 19.1 115.05 19.05 114.85 19.05 114.85 19.0 114.6 19.0 114.6 18.95 114.4 18.95 114.35 18.9 114.15 18.9 114.15 18.85 113.95 18.85 113.9 18.8 113.7 18.8 113.7 18.75 113.5 18.75 113.45 18.7 113.2 18.7 113.2 18.65 113.0 18.65 112.95 18.6 112.75 18.6 112.7 18.55 112.5 18.55 112.45 18.5 112.2 18.5 112.2 18.45 112.05 18.45 111.95 18.4 111.75 18.4 111.6 18.35 M87.0 17.65 L86.5 13.65 97.0 13.0 99.8 13.05 99.7 17.05 97.2 17.05 97.2 17.0 96.75 17.0 96.75 17.05 94.15 17.05 94.1 17.1 93.0 17.1 92.85 17.15 92.1 17.15 91.95 17.2 91.75 17.2 87.0 17.65 M67.65 22.55 L66.2 18.85 Q70.65 17.05 76.2 15.6 L77.2 19.5 77.05 19.5 77.05 19.55 76.85 19.55 76.85 19.6 76.7 19.6 76.65 19.65 76.5 19.65 76.45 19.7 70.0 21.7 69.9 21.75 69.75 21.75 69.75 21.8 69.6 21.8 69.6 21.85 69.5 21.85 69.5 21.9 69.35 21.9 69.35 21.95 69.2 21.95 69.2 22.0 69.1 22.0 69.05 22.05 67.65 22.55" fill="#b3b3b3" fill-rule="evenodd" stroke="none"/>
  </g>
</svg>
